{
  "accessors": [
    {
      "bufferView": 2,
      "componentType": 5126,
      "count": 39698,
      "max": [
        1190.056396484375,
        872.2601318359375,
        22.885475158691406
      ],
      "min": [
        -112.01549530029297,
        -5.8922247886657715,
        -22.698333740234375
      ],
      "type": "VEC3"
    },
    {
      "bufferView": 2,
      "byteOffset": 476376,
      "componentType": 5126,
      "count": 39698,
      "max": [
        0.9999999403953552,
        1.0,
        1.0
      ],
      "min": [
        -0.9999998211860657,
        -0.9696473479270935,
        -1.0
      ],
      "type": "VEC3"
    },
    {
      "bufferView": 1,
      "componentType": 5126,
      "count": 39698,
      "max": [
        0.9950637817382813,
        0.9950637817382813
      ],
      "min": [
        0.00493621826171875,
        0.00493621826171875
      ],
      "type": "VEC2"
    },
    {
      "bufferView": 1,
      "byteOffset": 317584,
      "componentType": 5126,
      "count": 39698,
      "max": [
        0.0,
        0.0
      ],
      "min": [
        0.0,
        0.0
      ],
      "type": "VEC2"
    },
    {
      "bufferView": 0,
      "componentType": 5125,
      "count": 88992,
      "type": "SCALAR"
    },
    {
      "bufferView": 2,
      "byteOffset": 952752,
      "componentType": 5126,
      "count": 672,
      "max": [
        119.42359161376953,
        -5.641935348510742,
        9.234074592590332
      ],
      "min": [
        42.971736907958984,
        -5.932770729064941,
        -9.150785446166992
      ],
      "type": "VEC3"
    },
    {
      "bufferView": 2,
      "byteOffset": 960816,
      "componentType": 5126,
      "count": 672,
      "max": [
        1.8931345039163716e-05,
        -0.9998713731765747,
        0.016038598492741585
      ],
      "min": [
        -7.891623681643978e-06,
        -0.9998837113380432,
        0.015249932184815407
      ],
      "type": "VEC3"
    },
    {
      "bufferView": 1,
      "byteOffset": 635168,
      "componentType": 5126,
      "count": 672,
      "max": [
        0.0,
        0.0
      ],
      "min": [
        0.0,
        0.0
      ],
      "type": "VEC2"
    },
    {
      "bufferView": 1,
      "byteOffset": 640544,
      "componentType": 5126,
      "count": 672,
      "max": [
        1.0,
        0.0
      ],
      "min": [
        0.0,
        0.0
      ],
      "type": "VEC2"
    },
    {
      "bufferView": 0,
      "byteOffset": 355968,
      "componentType": 5125,
      "count": 1998,
      "type": "SCALAR"
    }
  ],
  "asset": {
    "extras": {
      "author": "PropShop (https://sketchfab.com/syedabbas0815)",
      "license": "CC-BY-4.0 (http://creativecommons.org/licenses/by/4.0/)",
      "source": "https://sketchfab.com/3d-models/stunt-ramp-b7e99b37f1cf450e8efa5c297335d4aa",
      "title": "STUNT RAMP"
    },
    "generator": "Sketchfab-14.91.0",
    "version": "2.0"
  },
  "bufferViews": [
    {
      "buffer": 0,
      "byteLength": 363960,
      "name": "floatBufferViews",
      "target": 34963
    },
    {
      "buffer": 0,
      "byteLength": 645920,
      "byteOffset": 363960,
      "byteStride": 8,
      "name": "floatBufferViews",
      "target": 34962
    },
    {
      "buffer": 0,
      "byteLength": 968880,
      "byteOffset": 1009880,
      "byteStride": 12,
      "name": "floatBufferViews",
      "target": 34962
    }
  ],
  "buffers": [
    {
      "byteLength": 1978760,
      "uri": "tf.bin"
    }
  ],
  "images": [
    {
      "uri": "textures/lambert1_baseColor.jpeg"
    }
  ],
  "materials": [
    {
      "doubleSided": true,
      "name": "lambert1",
      "pbrMetallicRoughness": {
        "baseColorTexture": {
          "index": 0
        },
        "metallicFactor": 0.0,
        "roughnessFactor": 0.0
      }
    },
    {
      "doubleSided": true,
      "name": "Material.002",
      "pbrMetallicRoughness": {
        "baseColorFactor": [
          0.953523,
          1.0,
          0.0,
          1.0
        ],
        "metallicFactor": 0.0,
        "roughnessFactor": 0.7947470740969264
      }
    }
  ],
  "meshes": [
    {
      "name": "pCylinder5_lambert1_0",
      "primitives": [
        {
          "attributes": {
            "NORMAL": 1,
            "POSITION": 0,
            "TEXCOORD_0": 2,
            "TEXCOORD_1": 3
          },
          "indices": 4,
          "material": 0,
          "mode": 4
        }
      ]
    },
    {
      "name": "pCylinder5_Material.002_0",
      "primitives": [
        {
          "attributes": {
            "NORMAL": 6,
            "POSITION": 5,
            "TEXCOORD_0": 7,
            "TEXCOORD_1": 8
          },
          "indices": 9,
          "material": 1,
          "mode": 4
        }
      ]
    }
  ],
  "nodes": [
    {
      "children": [
        1
      ],
      "matrix": [
        1.0,
        0.0,
        0.0,
        0.0,
        0.0,
        2.220446049250313e-16,
        -1.0,
        0.0,
        0.0,
        1.0,
        2.220446049250313e-16,
        0.0,
        0.0,
        0.0,
        0.0,
        1.0
      ],
      "name": "Sketchfab_model"
    },
    {
      "children": [
        2
      ],
      "matrix": [
        0.009999999776482582,
        0.0,
        0.0,
        0.0,
        0.0,
        0.0,
        0.009999999776482582,
        0.0,
        0.0,
        -0.009999999776482582,
        0.0,
        0.0,
        0.0,
        0.0,
        0.0,
        1.0
      ],
      "name": "RAMP.fbx"
    },
    {
      "children": [
        3
      ],
      "name": "RootNode"
    },
    {
      "children": [
        4,
        5
      ],
      "matrix": [
        24136.61328125,
        0.0,
        0.0,
        0.0,
        0.0,
        24136.61328124968,
        0.003932353567984253,
        0.0,
        0.0,
        -0.003932353567984253,
        24136.61328124968,
        0.0,
        -504706.34375,
        70710.3828125,
        54477.140625,
        1.0
      ],
      "name": "pCylinder5"
    },
    {
      "mesh": 0,
      "name": "pCylinder5_lambert1_0"
    },
    {
      "mesh": 1,
      "name": "pCylinder5_Material.002_0"
    }
  ],
  "samplers": [
    {
      "magFilter": 9729,
      "minFilter": 9987,
      "wrapS": 10497,
      "wrapT": 10497
    }
  ],
  "scene": 0,
  "scenes": [
    {
      "name": "Sketchfab_Scene",
      "nodes": [
        0
      ]
    }
  ],
  "textures": [
    {
      "sampler": 0,
      "source": 0
    }
  ]
}
